<mxfile host="app.diagrams.net" agent="Mozilla/5.0 (Windows NT 10.0; Win64; x64) AppleWebKit/537.36 (KHTML, like Gecko) Chrome/128.0.0.0 Safari/537.36" version="24.7.13">
  <diagram name="1 oldal" id="a0wRv-FPLWL9Ph_be-Ah">
    <mxGraphModel dx="1687" dy="918" grid="1" gridSize="10" guides="1" tooltips="1" connect="1" arrows="1" fold="1" page="1" pageScale="1" pageWidth="827" pageHeight="1169" math="0" shadow="0">
      <root>
        <mxCell id="0" />
        <mxCell id="1" parent="0" />
        <mxCell id="vPpLNhqU3LxIRUcWxIWM-4" style="edgeStyle=orthogonalEdgeStyle;rounded=0;orthogonalLoop=1;jettySize=auto;html=1;" parent="1" source="vPpLNhqU3LxIRUcWxIWM-1" target="vPpLNhqU3LxIRUcWxIWM-2" edge="1">
          <mxGeometry relative="1" as="geometry" />
        </mxCell>
        <mxCell id="vPpLNhqU3LxIRUcWxIWM-1" value="START" style="ellipse;whiteSpace=wrap;html=1;" parent="1" vertex="1">
          <mxGeometry x="354" y="70" width="120" height="80" as="geometry" />
        </mxCell>
        <mxCell id="vPpLNhqU3LxIRUcWxIWM-5" style="edgeStyle=orthogonalEdgeStyle;rounded=0;orthogonalLoop=1;jettySize=auto;html=1;" parent="1" source="vPpLNhqU3LxIRUcWxIWM-2" target="vPpLNhqU3LxIRUcWxIWM-3" edge="1">
          <mxGeometry relative="1" as="geometry" />
        </mxCell>
        <mxCell id="vPpLNhqU3LxIRUcWxIWM-2" value="Be: lista1, lista2, lista3" style="rounded=0;whiteSpace=wrap;html=1;" parent="1" vertex="1">
          <mxGeometry x="344.5" y="180" width="139" height="80" as="geometry" />
        </mxCell>
        <mxCell id="I_sYtgpgkCh6Z7bFEX8p-5" style="edgeStyle=orthogonalEdgeStyle;rounded=0;orthogonalLoop=1;jettySize=auto;html=1;entryX=0.5;entryY=0;entryDx=0;entryDy=0;" edge="1" parent="1" source="vPpLNhqU3LxIRUcWxIWM-3" target="I_sYtgpgkCh6Z7bFEX8p-1">
          <mxGeometry relative="1" as="geometry" />
        </mxCell>
        <mxCell id="vPpLNhqU3LxIRUcWxIWM-3" value="&lt;div&gt;i = 0&lt;/div&gt;&lt;div&gt;c = 0&lt;/div&gt;" style="rounded=0;whiteSpace=wrap;html=1;" parent="1" vertex="1">
          <mxGeometry x="344.5" y="290" width="141" height="80" as="geometry" />
        </mxCell>
        <mxCell id="vPpLNhqU3LxIRUcWxIWM-12" value="END" style="ellipse;whiteSpace=wrap;html=1;" parent="1" vertex="1">
          <mxGeometry x="570" y="670" width="120" height="80" as="geometry" />
        </mxCell>
        <mxCell id="I_sYtgpgkCh6Z7bFEX8p-4" style="edgeStyle=orthogonalEdgeStyle;rounded=0;orthogonalLoop=1;jettySize=auto;html=1;entryX=0.5;entryY=0;entryDx=0;entryDy=0;" edge="1" parent="1" source="I_sYtgpgkCh6Z7bFEX8p-1" target="I_sYtgpgkCh6Z7bFEX8p-2">
          <mxGeometry relative="1" as="geometry" />
        </mxCell>
        <mxCell id="I_sYtgpgkCh6Z7bFEX8p-1" value="i = hossz(lista1)" style="rhombus;whiteSpace=wrap;html=1;" vertex="1" parent="1">
          <mxGeometry x="335" y="390" width="160" height="170" as="geometry" />
        </mxCell>
        <mxCell id="I_sYtgpgkCh6Z7bFEX8p-10" style="edgeStyle=orthogonalEdgeStyle;rounded=0;orthogonalLoop=1;jettySize=auto;html=1;entryX=0.5;entryY=0;entryDx=0;entryDy=0;" edge="1" parent="1" source="I_sYtgpgkCh6Z7bFEX8p-2" target="I_sYtgpgkCh6Z7bFEX8p-9">
          <mxGeometry relative="1" as="geometry" />
        </mxCell>
        <mxCell id="I_sYtgpgkCh6Z7bFEX8p-2" value="j = hossz(lista2)" style="rhombus;whiteSpace=wrap;html=1;" vertex="1" parent="1">
          <mxGeometry x="335" y="610" width="160" height="170" as="geometry" />
        </mxCell>
        <mxCell id="I_sYtgpgkCh6Z7bFEX8p-7" style="edgeStyle=orthogonalEdgeStyle;rounded=0;orthogonalLoop=1;jettySize=auto;html=1;entryX=0;entryY=0.5;entryDx=0;entryDy=0;" edge="1" parent="1" source="I_sYtgpgkCh6Z7bFEX8p-6" target="I_sYtgpgkCh6Z7bFEX8p-1">
          <mxGeometry relative="1" as="geometry" />
        </mxCell>
        <mxCell id="I_sYtgpgkCh6Z7bFEX8p-6" value="j++" style="rounded=0;whiteSpace=wrap;html=1;" vertex="1" parent="1">
          <mxGeometry x="170" y="445" width="120" height="60" as="geometry" />
        </mxCell>
        <mxCell id="I_sYtgpgkCh6Z7bFEX8p-12" style="edgeStyle=orthogonalEdgeStyle;rounded=0;orthogonalLoop=1;jettySize=auto;html=1;entryX=1;entryY=0.5;entryDx=0;entryDy=0;" edge="1" parent="1" source="I_sYtgpgkCh6Z7bFEX8p-9" target="I_sYtgpgkCh6Z7bFEX8p-11">
          <mxGeometry relative="1" as="geometry" />
        </mxCell>
        <mxCell id="I_sYtgpgkCh6Z7bFEX8p-9" value="ha(lista1[i] == lista2[j])" style="rhombus;whiteSpace=wrap;html=1;" vertex="1" parent="1">
          <mxGeometry x="334" y="810" width="160" height="170" as="geometry" />
        </mxCell>
        <mxCell id="I_sYtgpgkCh6Z7bFEX8p-11" value="j++" style="rounded=0;whiteSpace=wrap;html=1;" vertex="1" parent="1">
          <mxGeometry x="100" y="865" width="120" height="60" as="geometry" />
        </mxCell>
      </root>
    </mxGraphModel>
  </diagram>
</mxfile>
